<svg width="309" height="80" fill="none" xmlns="http://www.w3.org/2000/svg"><g filter="url(#filter0_d_343_1576)"><rect x="3" y="2" width="303" height="74" rx="2" fill="#FAFAFA"/><rect x="2.5" y="1.5" width="304" height="75" rx="2.5" stroke="#D6D6D6"/></g><path d="M283.231 27.212a16.6 16.6 0 00-.016-.67v-12.69l-3.52 3.508a15.699 15.699 0 00-12.172-5.76c-5.108 0-9.647 2.43-12.515 6.194l5.769 5.811a7.628 7.628 0 012.337-2.614c1.007-.783 2.435-1.424 4.409-1.424.238 0 .422.028.558.08a7.611 7.611 0 015.815 3.491l-4.084 4.07c5.172-.02 11.016-.031 13.419.003" fill="#1C3AA9"/><path d="M267.431 11.6a16.7 16.7 0 00-.673.017h-12.732l3.52 3.508c-3.526 2.871-5.779 7.24-5.779 12.132 0 5.091 2.439 9.614 6.215 12.474l5.83-5.75a7.629 7.629 0 01-2.622-2.33c-.786-1.004-1.429-2.426-1.429-4.394 0-.238.028-.421.08-.556a7.58 7.58 0 013.503-5.796l4.084 4.07c-.021-5.155-.033-10.98.002-13.374" fill="#4285F4"/><path d="M251.768 27.256c.001.225.006.449.016.671v12.69l3.52-3.508a15.699 15.699 0 0012.172 5.76c5.108 0 9.647-2.43 12.516-6.194l-5.77-5.811a7.628 7.628 0 01-2.337 2.613c-1.007.784-2.435 1.424-4.409 1.424-.238 0-.422-.028-.558-.08a7.608 7.608 0 01-5.814-3.49l4.083-4.071c-5.172.02-11.016.032-13.418-.003" fill="#ABABAB"/><path d="M254.418 48.932a2.36 2.36 0 00-1.029.217c-.303.141-.56.343-.772.606a2.848 2.848 0 00-.479.957 4.426 4.426 0 00-.164 1.247v1.327c0 .464.055.881.164 1.253.112.371.27.688.475.951.204.263.451.465.742.607.29.141.616.212.979.212.373 0 .7-.054.98-.163.284-.108.521-.264.712-.468.192-.207.338-.457.441-.75a3.5 3.5 0 00.188-.996h-.916a4.038 4.038 0 01-.118.735 1.33 1.33 0 01-.248.498.94.94 0 01-.415.286c-.169.06-.376.089-.624.089a1.25 1.25 0 01-.673-.173 1.366 1.366 0 01-.45-.483 2.446 2.446 0 01-.247-.715 4.904 4.904 0 01-.074-.883V51.95c0-.339.029-.646.089-.922.062-.277.156-.512.282-.706.125-.194.283-.343.475-.448a1.36 1.36 0 01.682-.163c.221 0 .411.033.569.098a.92.92 0 01.396.296c.106.132.187.3.243.503.056.204.094.447.113.73h.916a3.585 3.585 0 00-.183-1.03 2.16 2.16 0 00-.441-.755 1.818 1.818 0 00-.687-.464 2.52 2.52 0 00-.926-.157zm22.344 0a2.36 2.36 0 00-1.029.217 2.136 2.136 0 00-.772.606 2.83 2.83 0 00-.48.957 4.427 4.427 0 00-.163 1.247v1.327c0 .464.054.881.163 1.253.112.371.271.688.475.951.205.263.452.465.742.607.291.141.617.212.98.212.373 0 .699-.054.98-.163.283-.108.521-.264.712-.468.192-.207.338-.457.441-.75a3.5 3.5 0 00.188-.996h-.916a4.038 4.038 0 01-.118.735c-.057.2-.139.366-.248.498a.94.94 0 01-.415.286c-.169.06-.376.089-.624.089a1.25 1.25 0 01-.673-.173 1.357 1.357 0 01-.45-.483 2.417 2.417 0 01-.247-.715 4.9 4.9 0 01-.075-.883V51.95c0-.339.03-.646.089-.922.063-.277.157-.512.283-.706a1.31 1.31 0 01.474-.448 1.36 1.36 0 01.683-.163c.221 0 .411.033.569.098.159.063.29.162.396.296.106.132.186.3.242.503.057.204.094.447.114.73h.916a3.55 3.55 0 00-.184-1.03 2.14 2.14 0 00-.44-.755 1.813 1.813 0 00-.688-.464 2.51 2.51 0 00-.925-.157zm-17.128.098l-2.321 7.18h.93l.559-1.874h2.435l.569 1.874h.93l-2.326-7.18h-.776zm4.081 0v7.18h.906V53.4h1.39c.346 0 .653-.048.92-.144a1.745 1.745 0 001.089-1.105 2.81 2.81 0 00.143-.926c0-.32-.048-.612-.143-.878a1.925 1.925 0 00-.411-.695 1.824 1.824 0 00-.678-.459 2.43 2.43 0 00-.92-.163h-2.296zm5.141 0v.78h1.89v6.4h.905v-6.4h1.895v-.78h-4.69zm11.365 0v7.18h.905v-3.319h2.899v3.32h.911v-7.18h-.911v3.086h-2.899V49.03h-.905zm8.148 0l-2.32 7.18h.93l.559-1.874h2.434l.569 1.874h.931l-2.326-7.18h-.777zm-23.748.78h1.39c.221 0 .409.039.564.118.158.079.287.184.386.316.102.131.176.284.222.458.05.171.075.349.075.533 0 .203-.025.39-.075.562-.046.168-.12.314-.222.439a1.007 1.007 0 01-.386.286 1.38 1.38 0 01-.564.103h-1.39V49.81zm-4.602.483l.985 3.264h-1.964l.979-3.264zm28.736 0l.985 3.264h-1.964l.979-3.264zm-42.618.483c-.228 0-.424.058-.589.173a1.38 1.38 0 00-.406.468l-.015-.542h-.851v5.335h.876v-3.817c.083-.227.2-.406.351-.537a.88.88 0 01.589-.197c.076 0 .144.003.203.01.059.003.124.011.193.024l-.005-.848a.303.303 0 00-.064-.02.594.594 0 00-.089-.025 1.025 1.025 0 00-.104-.014.46.46 0 00-.089-.01zm2.944 0c-.254 0-.5.044-.738.133a1.616 1.616 0 00-.633.44 2.26 2.26 0 00-.44.788c-.112.322-.169.718-.169 1.189v.601c0 .408.048.761.144 1.06.096.3.233.548.411.745.181.194.4.339.658.434.257.095.546.143.866.143.23 0 .437-.023.618-.069.185-.046.348-.105.49-.178.142-.075.264-.16.366-.256.102-.095.19-.194.262-.296l-.455-.552a2.36 2.36 0 01-.233.246 1.593 1.593 0 01-.272.193 1.416 1.416 0 01-.326.123c-.119.03-.253.044-.401.044-.406 0-.717-.13-.935-.39-.215-.259-.322-.675-.322-1.247v-.123h2.989v-.508c0-.408-.035-.768-.104-1.08a2.145 2.145 0 00-.332-.789 1.429 1.429 0 00-.584-.483 2.006 2.006 0 00-.86-.168zm0 .75a.98.98 0 01.475.103.76.76 0 01.296.291c.076.125.131.275.164.449.036.17.059.36.069.567v.118h-2.108a3.11 3.11 0 01.109-.744 1.31 1.31 0 01.233-.469.788.788 0 01.341-.246c.129-.046.269-.07.421-.07z" fill="#A6A6A6"/><rect x="14.04" y="26" width="26.079" height="26" rx="2" fill="#fff" stroke="#C1C1C1" stroke-width="2"/><path d="M56.035 34.76V44h-1.497v-9.24h1.498zm3.287-.504c.261 0 .476.065.644.196.177.121.313.294.406.518.093.215.14.462.14.742 0 .345-.066.681-.196 1.008-.13.317-.322.611-.574.882a2.95 2.95 0 01-.882.644l-.7-.602c.252-.093.476-.215.672-.364.196-.15.36-.317.49-.504a1.77 1.77 0 00.294-.574l-.056-.028a.702.702 0 01-.168.07.848.848 0 01-.252.028.958.958 0 01-.406-.098 1.002 1.002 0 01-.336-.322c-.094-.14-.14-.322-.14-.546 0-.205.046-.387.14-.546.102-.159.233-.28.392-.364a1.03 1.03 0 01.532-.14zM62.189 44v-7h1.33l.07 1.176c.242-.448.564-.78.966-.994.41-.215.844-.322 1.302-.322.504 0 .966.117 1.386.35.43.224.751.565.966 1.022.15-.308.355-.565.616-.77.261-.205.55-.355.868-.448.317-.103.63-.154.938-.154.448 0 .868.093 1.26.28.392.187.71.471.952.854s.364.873.364 1.47V44h-1.498v-4.298c0-.57-.136-.98-.406-1.232s-.616-.378-1.036-.378c-.327 0-.63.08-.91.238a1.75 1.75 0 00-.658.714c-.168.308-.252.69-.252 1.148V44h-1.498v-4.298c0-.57-.135-.98-.406-1.232-.27-.252-.616-.378-1.036-.378a1.8 1.8 0 00-1.54.924c-.187.317-.28.737-.28 1.26V44h-1.498zm17.842 0v-7h1.33l.098 1.82-.196-.196c.13-.401.317-.733.56-.994.252-.27.546-.467.882-.588a3.27 3.27 0 011.092-.182c.494 0 .938.098 1.33.294.401.187.718.471.952.854.233.383.35.868.35 1.456V44H84.93v-4.074c0-.69-.145-1.167-.434-1.428-.28-.27-.635-.406-1.064-.406-.308 0-.607.075-.896.224a1.76 1.76 0 00-.728.686c-.187.317-.28.742-.28 1.274V44H80.03zm11.706-7.14c.681 0 1.283.145 1.806.434.522.29.928.71 1.218 1.26.298.541.448 1.19.448 1.946s-.15 1.41-.448 1.96c-.29.541-.696.957-1.218 1.246-.523.29-1.125.434-1.806.434-.682 0-1.284-.145-1.806-.434a3.105 3.105 0 01-1.232-1.246c-.299-.55-.448-1.204-.448-1.96s.149-1.405.448-1.946c.298-.55.709-.97 1.232-1.26.522-.29 1.124-.434 1.806-.434zm0 1.176c-.42 0-.78.098-1.078.294-.29.187-.514.462-.672.826-.159.364-.238.812-.238 1.344 0 .523.079.97.238 1.344a1.9 1.9 0 00.672.84c.298.187.658.28 1.078.28.42 0 .774-.093 1.064-.28a1.9 1.9 0 00.672-.84c.158-.373.238-.821.238-1.344 0-.532-.08-.98-.238-1.344-.159-.364-.383-.64-.672-.826-.29-.196-.644-.294-1.064-.294zm7.304-3.094V41.9c0 .345.09.597.266.756.187.159.434.238.742.238.252 0 .472-.037.658-.112.187-.084.36-.196.518-.336l.336 1.092c-.214.187-.48.336-.798.448a3.262 3.262 0 01-1.036.154c-.4 0-.77-.065-1.106-.196a1.593 1.593 0 01-.784-.63c-.186-.299-.284-.686-.294-1.162v-6.79l1.498-.42zM101.45 37v1.176H96.2V37h5.25zm10.081 2.506c0-.467-.131-.826-.392-1.078-.252-.261-.602-.392-1.05-.392-.42 0-.78.098-1.078.294-.299.196-.518.513-.658.952l-1.26-.532a2.515 2.515 0 011.036-1.372c.522-.345 1.194-.518 2.016-.518.56 0 1.054.093 1.484.28a2.18 2.18 0 011.008.812c.252.364.378.83.378 1.4v3.122c0 .345.172.518.518.518.168 0 .331-.023.49-.07l-.084 1.036c-.215.103-.486.154-.812.154a2.06 2.06 0 01-.812-.154 1.352 1.352 0 01-.56-.49c-.131-.224-.196-.5-.196-.826v-.098l.308-.014a1.749 1.749 0 01-.518.91c-.262.233-.565.41-.91.532a3.39 3.39 0 01-1.05.168c-.439 0-.836-.07-1.19-.21a1.864 1.864 0 01-.826-.63c-.196-.29-.294-.644-.294-1.064 0-.523.168-.952.504-1.288.345-.336.83-.565 1.456-.686l2.716-.532-.014 1.05-1.974.406c-.392.075-.686.182-.882.322-.196.14-.294.345-.294.616a.77.77 0 00.294.63c.205.15.476.224.812.224.233 0 .457-.028.672-.084.224-.056.424-.145.602-.266.177-.13.312-.294.406-.49.102-.205.154-.448.154-.728v-1.904zM119.747 44v-7h1.274l.14 1.26c.187-.457.462-.803.826-1.036.374-.243.831-.364 1.372-.364.14 0 .28.014.42.042.14.019.257.051.35.098l-.21 1.316a1.738 1.738 0 00-.35-.084 2.35 2.35 0 00-.504-.042c-.289 0-.574.08-.854.238a1.83 1.83 0 00-.7.686c-.177.308-.266.7-.266 1.176V44h-1.498zm8.658-7.14c.681 0 1.283.145 1.806.434.522.29.928.71 1.218 1.26.298.541.448 1.19.448 1.946s-.15 1.41-.448 1.96c-.29.541-.696.957-1.218 1.246-.523.29-1.125.434-1.806.434-.682 0-1.284-.145-1.806-.434a3.098 3.098 0 01-1.232-1.246c-.299-.55-.448-1.204-.448-1.96s.149-1.405.448-1.946c.298-.55.709-.97 1.232-1.26.522-.29 1.124-.434 1.806-.434zm0 1.176c-.42 0-.78.098-1.078.294-.29.187-.514.462-.672.826-.159.364-.238.812-.238 1.344 0 .523.079.97.238 1.344.158.364.382.644.672.84.298.187.658.28 1.078.28.42 0 .774-.093 1.064-.28.289-.196.513-.476.672-.84.158-.373.238-.821.238-1.344 0-.532-.08-.98-.238-1.344-.159-.364-.383-.64-.672-.826-.29-.196-.644-.294-1.064-.294zm9.108 6.104a2.68 2.68 0 01-1.134-.238 2.467 2.467 0 01-.854-.658 2.938 2.938 0 01-.518-.966l.182-.238-.112 1.96h-1.316V33.85h1.498v4.914l-.168-.238c.177-.485.481-.882.91-1.19.429-.317.947-.476 1.554-.476.56 0 1.073.145 1.54.434.476.29.849.705 1.12 1.246.271.541.406 1.2.406 1.974 0 .756-.14 1.405-.42 1.946-.271.541-.644.957-1.12 1.246a2.91 2.91 0 01-1.568.434zm-.322-1.204c.607 0 1.078-.215 1.414-.644.345-.439.518-1.036.518-1.792s-.168-1.349-.504-1.778c-.336-.43-.807-.644-1.414-.644a1.72 1.72 0 00-1.022.308 1.995 1.995 0 00-.686.84c-.159.364-.238.798-.238 1.302 0 .495.079.924.238 1.288.159.355.383.63.672.826a1.82 1.82 0 001.022.294zm8.385-6.076c.682 0 1.284.145 1.806.434.523.29.929.71 1.218 1.26.299.541.448 1.19.448 1.946s-.149 1.41-.448 1.96a3.01 3.01 0 01-1.218 1.246c-.522.29-1.124.434-1.806.434-.681 0-1.283-.145-1.806-.434a3.11 3.11 0 01-1.232-1.246c-.298-.55-.448-1.204-.448-1.96s.15-1.405.448-1.946c.299-.55.71-.97 1.232-1.26.523-.29 1.125-.434 1.806-.434zm0 1.176c-.42 0-.779.098-1.078.294-.289.187-.513.462-.672.826-.158.364-.238.812-.238 1.344 0 .523.08.97.238 1.344.159.364.383.644.672.84.299.187.658.28 1.078.28.42 0 .775-.093 1.064-.28.29-.196.514-.476.672-.84.159-.373.238-.821.238-1.344 0-.532-.079-.98-.238-1.344-.158-.364-.382-.64-.672-.826-.289-.196-.644-.294-1.064-.294zm7.305-3.094V41.9c0 .345.089.597.266.756.187.159.434.238.742.238.252 0 .472-.037.658-.112.187-.084.36-.196.518-.336l.336 1.092c-.214.187-.48.336-.798.448a3.263 3.263 0 01-1.036.154 3.02 3.02 0 01-1.106-.196 1.595 1.595 0 01-.784-.63c-.186-.299-.284-.686-.294-1.162v-6.79l1.498-.42zM155.289 37v1.176h-5.25V37h5.25z" fill="#000"/><path d="M242.855 64.879h-1.481v-.777h1.481c.258 0 .466-.042.625-.125a.773.773 0 00.347-.344c.076-.149.114-.318.114-.508 0-.18-.038-.348-.114-.504a.855.855 0 00-.347-.383c-.159-.096-.367-.144-.625-.144h-1.18V67h-.98v-5.688h2.16c.44 0 .814.079 1.121.235.31.154.545.367.707.64.161.271.242.581.242.93 0 .367-.081.683-.242.946a1.561 1.561 0 01-.707.605c-.307.14-.681.21-1.121.21zm3.801-1.3V67h-.942v-4.227h.899l.043.805zm1.293-.833l-.008.875a2.398 2.398 0 00-.383-.031c-.162 0-.303.023-.426.07a.8.8 0 00-.496.5 1.38 1.38 0 00-.078.403l-.215.015c0-.266.026-.512.078-.738.052-.227.13-.426.235-.598.106-.172.239-.306.398-.402a1.07 1.07 0 01.559-.145 1.162 1.162 0 01.336.051zm1.597.027V67h-.945v-4.227h.945zm-1.008-1.109a.48.48 0 01.141-.355.537.537 0 01.398-.145.53.53 0 01.395.145.476.476 0 01.144.355c0 .14-.048.258-.144.352a.541.541 0 01-.395.14.546.546 0 01-.398-.14.476.476 0 01-.141-.352zm3.414 4.59l1.036-3.48h.976L252.495 67h-.609l.066-.746zm-.793-3.48l1.055 3.495.051.731h-.609l-1.477-4.227h.98zm5.707 3.378v-2.015a.86.86 0 00-.082-.39.57.57 0 00-.25-.255.853.853 0 00-.414-.09.937.937 0 00-.398.078.649.649 0 00-.262.211.513.513 0 00-.094.301h-.937c0-.166.04-.328.121-.484.081-.156.198-.296.352-.418a1.75 1.75 0 01.55-.29c.214-.07.454-.105.719-.105.318 0 .599.054.844.16.247.107.441.269.582.485.143.213.215.482.215.804v1.88c0 .192.013.365.039.519a1.7 1.7 0 00.121.394V67h-.965a1.682 1.682 0 01-.105-.387 3.086 3.086 0 01-.036-.46zm.137-1.722l.008.582h-.676c-.174 0-.328.017-.461.05a.95.95 0 00-.332.141.612.612 0 00-.265.528c0 .111.026.214.078.308a.546.546 0 00.226.215.799.799 0 00.368.078 1.033 1.033 0 00.847-.41.631.631 0 00.133-.332l.305.418a1.48 1.48 0 01-.16.344c-.076.122-.175.24-.297.351a1.485 1.485 0 01-1.012.375c-.276 0-.522-.055-.738-.164a1.305 1.305 0 01-.508-.45 1.16 1.16 0 01-.184-.644c0-.224.042-.422.125-.593.086-.175.211-.32.375-.438.167-.117.37-.206.61-.266a3.28 3.28 0 01.82-.093h.738zm3.52 1.898c.153 0 .291-.03.414-.09a.79.79 0 00.301-.257.697.697 0 00.128-.38h.887a1.32 1.32 0 01-.242.747 1.677 1.677 0 01-.621.535c-.258.13-.543.195-.856.195-.322 0-.604-.055-.843-.164a1.668 1.668 0 01-.598-.46 2.011 2.011 0 01-.359-.677 2.792 2.792 0 01-.118-.82v-.137c0-.291.04-.565.118-.82.08-.258.2-.484.359-.68a1.63 1.63 0 01.598-.457c.239-.112.519-.168.84-.168.338 0 .635.068.89.203.255.133.456.32.602.559.148.237.225.513.23.828h-.887a.925.925 0 00-.117-.422.769.769 0 00-.289-.304.822.822 0 00-.441-.114c-.19 0-.348.04-.473.117a.793.793 0 00-.293.313 1.52 1.52 0 00-.152.441c-.029.162-.043.33-.043.504v.137c0 .175.014.344.043.508.029.164.078.311.148.441a.87.87 0 00.297.309.91.91 0 00.477.113zm3.679.211l1.149-3.766h1.008l-1.696 4.871a3.185 3.185 0 01-.152.34 1.54 1.54 0 01-.246.348 1.096 1.096 0 01-.371.27c-.149.07-.328.105-.539.105-.084 0-.164-.008-.242-.023a3.712 3.712 0 01-.215-.043l-.004-.72a3.236 3.236 0 00.187.013c.157 0 .287-.02.391-.059a.543.543 0 00.254-.18 1.06 1.06 0 00.172-.336l.304-.82zm-.648-3.766l1.004 3.164.168.993-.652.168-1.536-4.325h1.016zm7.23 1.422v.75h-2.066v-.75h2.066zm5.063-2.882V67h-.973v-5.688h.973zm1.785 0v.78h-4.527v-.78h4.527zm2.145 5.765c-.313 0-.595-.05-.848-.152a1.873 1.873 0 01-.641-.434 1.933 1.933 0 01-.402-.652 2.279 2.279 0 01-.141-.809v-.156c0-.33.049-.63.145-.898a2.03 2.03 0 01.402-.688c.172-.193.375-.34.61-.441.234-.102.488-.153.761-.153.302 0 .567.051.793.153.227.101.414.244.563.43.151.182.263.4.336.652.075.252.113.53.113.836v.402h-3.266v-.676h2.336v-.074a1.328 1.328 0 00-.101-.477.813.813 0 00-.278-.359c-.125-.091-.291-.137-.5-.137a.851.851 0 00-.418.102.825.825 0 00-.3.285 1.488 1.488 0 00-.188.453 2.583 2.583 0 00-.062.59v.156c0 .185.024.357.074.516.052.156.128.293.226.41.099.117.219.21.36.277.14.066.301.098.48.098a1.294 1.294 0 001.067-.523l.496.48a1.767 1.767 0 01-.891.676c-.208.075-.45.113-.726.113zm3.371-3.5V67h-.942v-4.227h.899l.043.805zm1.293-.832l-.008.875a2.398 2.398 0 00-.383-.031 1.19 1.19 0 00-.426.07.8.8 0 00-.496.5 1.38 1.38 0 00-.078.403l-.215.015c0-.266.026-.512.078-.738a2.02 2.02 0 01.235-.598c.107-.172.239-.306.398-.402.162-.097.348-.145.559-.145a1.162 1.162 0 01.336.051zm1.531.887V67h-.941v-4.227h.886l.055.86zm-.152 1.098l-.321-.004c0-.292.037-.562.11-.809a1.95 1.95 0 01.32-.645 1.42 1.42 0 01.523-.425c.211-.102.455-.153.731-.153.193 0 .368.029.527.086.162.055.301.142.418.262.12.12.211.273.274.46.065.188.097.415.097.68V67h-.941v-2.734c0-.206-.031-.368-.094-.485a.52.52 0 00-.262-.25.948.948 0 00-.402-.078.94.94 0 00-.453.102.856.856 0 00-.301.277 1.257 1.257 0 00-.172.406 2.153 2.153 0 00-.054.493zm2.621-.25l-.442.097c0-.255.035-.496.106-.723.073-.229.178-.43.316-.601.141-.175.314-.311.52-.41.205-.1.441-.149.707-.149.216 0 .409.03.578.09.172.057.318.149.437.274.12.125.211.287.274.488.062.198.094.437.094.719V67h-.946v-2.738c0-.214-.031-.38-.094-.496a.481.481 0 00-.257-.243 1.042 1.042 0 00-.403-.07.867.867 0 00-.386.082.768.768 0 00-.278.223 1.001 1.001 0 00-.172.324 1.407 1.407 0 00-.054.399zm5.929 1.375a.47.47 0 00-.07-.254.604.604 0 00-.269-.211 2.618 2.618 0 00-.579-.172 5.012 5.012 0 01-.617-.176 1.939 1.939 0 01-.476-.254 1.07 1.07 0 01-.309-.352.972.972 0 01-.109-.468c0-.172.037-.335.113-.489a1.25 1.25 0 01.324-.406c.141-.117.311-.21.512-.277.203-.068.43-.102.68-.102.354 0 .657.06.91.18.255.117.45.277.586.48.135.201.203.428.203.68h-.942a.594.594 0 00-.086-.312.594.594 0 00-.25-.239.852.852 0 00-.421-.093.917.917 0 00-.403.078.549.549 0 00-.234.195.494.494 0 00-.035.457.442.442 0 00.14.152c.065.045.154.086.266.125.115.04.258.077.43.114.323.067.6.155.832.261.234.105.414.24.539.407.125.164.187.372.187.625 0 .187-.04.36-.121.515a1.17 1.17 0 01-.344.403 1.713 1.713 0 01-.543.261 2.44 2.44 0 01-.703.094c-.382 0-.707-.068-.972-.203a1.55 1.55 0 01-.606-.527 1.252 1.252 0 01-.203-.672h.91a.71.71 0 00.145.418.775.775 0 00.328.222c.133.045.269.067.41.067.169 0 .311-.022.426-.067a.618.618 0 00.262-.187.452.452 0 00.089-.273z" fill="#A6A6A6"/><defs><filter id="filter0_d_343_1576" x="0" y="0" width="309" height="80" filterUnits="userSpaceOnUse" color-interpolation-filters="sRGB"><feFlood flood-opacity="0" result="BackgroundImageFix"/><feColorMatrix in="SourceAlpha" values="0 0 0 0 0 0 0 0 0 0 0 0 0 0 0 0 0 0 127 0" result="hardAlpha"/><feOffset dy="1"/><feGaussianBlur stdDeviation="1"/><feColorMatrix values="0 0 0 0 0 0 0 0 0 0 0 0 0 0 0 0 0 0 0.1 0"/><feBlend in2="BackgroundImageFix" result="effect1_dropShadow_343_1576"/><feBlend in="SourceGraphic" in2="effect1_dropShadow_343_1576" result="shape"/></filter></defs></svg>