<svg width="309" height="80" fill="none" xmlns="http://www.w3.org/2000/svg"><g filter="url(#filter0_d_249_566)"><rect x="3" y="2" width="303" height="74" rx="2" fill="#FAFAFA"/><rect x="2.5" y="1.5" width="304" height="75" rx="2.5" stroke="#D6D6D6"/></g><path d="M283.231 27.212a16.595 16.595 0 00-.016-.67v-12.69l-3.52 3.507a15.699 15.699 0 00-12.172-5.759 15.7 15.7 0 00-12.516 6.194l5.77 5.81a7.617 7.617 0 012.337-2.613c1.007-.783 2.434-1.424 4.409-1.424.238 0 .422.028.557.08a7.608 7.608 0 015.815 3.491l-4.084 4.07c5.173-.02 11.017-.031 13.419.003" fill="#1C3AA9"/><path d="M267.431 11.6c-.226.001-.45.007-.673.017h-12.732l3.52 3.508c-3.527 2.871-5.779 7.24-5.779 12.132 0 5.091 2.438 9.614 6.215 12.474l5.83-5.75a7.629 7.629 0 01-2.622-2.33c-.786-1.004-1.429-2.426-1.429-4.394 0-.238.028-.421.08-.556a7.577 7.577 0 013.503-5.796l4.084 4.07c-.021-5.155-.033-10.98.002-13.374" fill="#4285F4"/><path d="M251.768 27.256c0 .225.006.449.016.671v12.69l3.52-3.508a15.697 15.697 0 0012.172 5.76 15.7 15.7 0 0012.515-6.194l-5.769-5.811a7.63 7.63 0 01-2.338 2.613c-1.007.784-2.434 1.424-4.408 1.424-.239 0-.423-.028-.558-.08a7.61 7.61 0 01-5.815-3.49l4.084-4.071c-5.173.02-11.016.032-13.419-.003" fill="#ABABAB"/><path d="M254.418 48.932c-.383 0-.726.072-1.029.217a2.126 2.126 0 00-.772.606 2.83 2.83 0 00-.48.957 4.427 4.427 0 00-.163 1.247v1.327c0 .463.054.881.163 1.252.112.372.27.69.475.952.205.263.452.465.742.607.29.141.617.212.98.212a2.7 2.7 0 00.979-.163 1.88 1.88 0 00.713-.468 2.12 2.12 0 00.44-.75c.106-.292.168-.624.188-.996h-.915c-.023.286-.063.53-.119.735a1.33 1.33 0 01-.247.498.945.945 0 01-.416.286 1.897 1.897 0 01-.623.089 1.25 1.25 0 01-.673-.173 1.349 1.349 0 01-.45-.483 2.447 2.447 0 01-.248-.715 4.995 4.995 0 01-.074-.883v-1.337c0-.338.03-.645.089-.922.063-.276.157-.51.282-.705.125-.194.284-.343.475-.449.191-.108.419-.162.683-.162.221 0 .411.032.569.098.158.063.29.161.396.296.105.132.186.3.242.503.056.204.094.447.114.73h.915a3.517 3.517 0 00-.183-1.03 2.14 2.14 0 00-.44-.755 1.813 1.813 0 00-.688-.464 2.51 2.51 0 00-.925-.157zm22.344 0c-.383 0-.726.072-1.029.217a2.126 2.126 0 00-.772.606 2.83 2.83 0 00-.48.957 4.427 4.427 0 00-.163 1.247v1.327c0 .463.054.881.163 1.252.112.372.27.69.475.952.204.263.452.465.742.607.29.141.617.212.98.212.372 0 .699-.054.979-.163.284-.108.521-.264.713-.468a2.12 2.12 0 00.44-.75c.106-.292.168-.624.188-.996h-.915c-.023.286-.063.53-.119.735a1.33 1.33 0 01-.247.498.945.945 0 01-.416.286 1.897 1.897 0 01-.623.089c-.264 0-.489-.058-.673-.173a1.349 1.349 0 01-.45-.483 2.418 2.418 0 01-.248-.715 4.995 4.995 0 01-.074-.883v-1.337c0-.338.03-.645.089-.922.063-.276.157-.51.282-.705.125-.194.284-.343.475-.449.191-.108.419-.162.683-.162.221 0 .41.032.569.098.158.063.29.161.396.296.105.132.186.3.242.503.056.204.094.447.114.73h.915a3.517 3.517 0 00-.183-1.03 2.155 2.155 0 00-.44-.755 1.82 1.82 0 00-.688-.464 2.514 2.514 0 00-.925-.157zm-17.129.098l-2.32 7.18h.93l.559-1.874h2.434l.569 1.874h.93l-2.325-7.18h-.777zm4.082 0v7.18h.905V53.4h1.39c.347 0 .654-.048.921-.144a1.743 1.743 0 001.088-1.105c.096-.272.144-.581.144-.926 0-.32-.048-.612-.144-.878a1.84 1.84 0 00-1.088-1.154 2.432 2.432 0 00-.921-.163h-2.295zm5.14 0v.78h1.89v6.4h.906v-6.4h1.895v-.78h-4.691zm11.365 0v7.18h.906v-3.319h2.899v3.32h.91v-7.18h-.91v3.086h-2.899V49.03h-.906zm8.149 0l-2.321 7.18h.931l.559-1.874h2.434l.569 1.874h.93l-2.325-7.18h-.777zm-23.749.78h1.39c.221 0 .409.039.564.118.159.079.287.184.386.315.103.132.177.285.223.459a2.035 2.035 0 010 1.095 1.17 1.17 0 01-.223.439 1 1 0 01-.386.286 1.382 1.382 0 01-.564.103h-1.39V49.81zm-4.601.483l.984 3.264h-1.964l.98-3.264zm28.736 0l.984 3.264h-1.964l.98-3.264zm-42.619.483c-.227 0-.424.057-.589.172a1.39 1.39 0 00-.405.469l-.015-.543h-.851v5.336h.876v-3.817c.082-.227.199-.406.351-.537a.878.878 0 01.589-.198c.076 0 .143.004.203.01.059.004.123.012.193.025l-.005-.848a.316.316 0 00-.065-.02.96.96 0 00-.193-.04.453.453 0 00-.089-.01zm2.944 0c-.254 0-.5.044-.737.133a1.6 1.6 0 00-.633.439c-.182.2-.329.464-.441.789-.112.322-.168.718-.168 1.188v.602c0 .408.048.761.143 1.06.096.3.233.548.411.745.182.194.401.339.658.434.257.095.546.143.866.143a2.467 2.467 0 001.108-.247c.142-.075.264-.16.366-.256.103-.095.19-.194.263-.296l-.456-.552a1.639 1.639 0 01-.504.439 1.43 1.43 0 01-.327.123c-.118.03-.252.044-.4.044-.406 0-.718-.13-.936-.39-.214-.259-.321-.675-.321-1.247v-.123h2.988v-.508a4.97 4.97 0 00-.104-1.08 2.144 2.144 0 00-.331-.79 1.442 1.442 0 00-.584-.482 2.01 2.01 0 00-.861-.168zm0 .75c.191 0 .35.034.475.103a.77.77 0 01.297.291c.076.125.13.274.163.449.036.17.06.36.069.567v.118h-2.107a3.06 3.06 0 01.109-.744c.059-.198.136-.354.232-.469a.792.792 0 01.342-.247c.128-.046.268-.069.42-.069z" fill="#A6A6A6"/><rect x="14.04" y="26" width="26.079" height="26" rx="2" fill="#fff" stroke="#C1C1C1" stroke-width="2"/><path d="M59.575 34.42v5.538c0 .997-.278 1.777-.833 2.34-.545.555-1.308.832-2.287.832-.703 0-1.274-.13-1.716-.39a2.071 2.071 0 01-.923-1.092c-.174-.477-.204-1.027-.092-1.651l1.34-.247c-.105.745-.048 1.296.169 1.651.216.347.623.52 1.222.52.65 0 1.096-.186 1.339-.559.25-.381.377-.936.377-1.664V34.42h1.404zm5.007 8.71c-.65 0-1.222-.134-1.716-.403a2.86 2.86 0 01-1.157-1.157c-.269-.511-.403-1.118-.403-1.82s.134-1.304.403-1.807a2.862 2.862 0 011.144-1.17c.485-.269 1.036-.403 1.651-.403.633 0 1.17.13 1.612.39.442.26.78.615 1.014 1.066.234.45.351.962.351 1.534 0 .156-.004.303-.013.442s-.022.26-.039.364h-5.226V39.1h4.615l-.689.208c0-.59-.147-1.04-.442-1.352-.295-.32-.698-.481-1.209-.481-.373 0-.698.087-.975.26-.277.173-.49.433-.637.78-.147.338-.22.754-.22 1.248 0 .485.077.897.233 1.235a1.7 1.7 0 00.663.767c.286.173.624.26 1.014.26.433 0 .784-.082 1.053-.247.269-.165.481-.394.637-.689l1.105.52a2.65 2.65 0 01-.637.819c-.26.225-.572.399-.936.52a3.764 3.764 0 01-1.196.182zm8.883-.13v-6.5H74.7l.091 1.69-.182-.182a2.46 2.46 0 01.52-.923c.234-.251.507-.433.82-.546a3.02 3.02 0 011.013-.169c.46 0 .871.091 1.235.273.373.173.668.438.884.793.217.355.325.806.325 1.352V43h-1.39v-3.783c0-.641-.135-1.083-.404-1.326-.26-.251-.59-.377-.988-.377-.286 0-.563.07-.832.208-.268.13-.494.342-.676.637-.173.295-.26.689-.26 1.183V43h-1.39zm10.91.13c-.65 0-1.223-.134-1.717-.403a2.86 2.86 0 01-1.157-1.157c-.269-.511-.403-1.118-.403-1.82s.134-1.304.403-1.807a2.862 2.862 0 011.144-1.17c.485-.269 1.036-.403 1.651-.403.633 0 1.17.13 1.612.39.442.26.78.615 1.014 1.066.234.45.351.962.351 1.534 0 .156-.004.303-.013.442s-.022.26-.039.364h-5.226V39.1h4.615l-.689.208c0-.59-.147-1.04-.442-1.352-.295-.32-.698-.481-1.209-.481-.373 0-.698.087-.975.26-.277.173-.49.433-.637.78-.147.338-.22.754-.22 1.248 0 .485.077.897.233 1.235a1.7 1.7 0 00.663.767c.286.173.624.26 1.014.26.433 0 .784-.082 1.053-.247.269-.165.481-.394.637-.689l1.105.52a2.65 2.65 0 01-.637.819c-.26.225-.572.399-.936.52a3.764 3.764 0 01-1.196.182zm11.352 0a4.15 4.15 0 01-1.78-.377 3.08 3.08 0 01-1.275-1.066l.962-.832c.19.355.464.641.82.858.363.208.797.312 1.3.312.398 0 .714-.07.948-.208.234-.139.351-.334.351-.585a.61.61 0 00-.169-.429c-.104-.13-.307-.23-.61-.299l-1.366-.286c-.693-.139-1.187-.36-1.482-.663-.294-.312-.442-.706-.442-1.183 0-.355.104-.685.312-.988.208-.303.512-.546.91-.728.408-.19.893-.286 1.456-.286.65 0 1.205.117 1.664.351.46.225.81.55 1.053.975l-.962.806a1.607 1.607 0 00-.728-.767 2.078 2.078 0 00-1-.26 2.2 2.2 0 00-.716.104c-.2.07-.35.165-.455.286a.638.638 0 00-.156.429c0 .173.065.325.195.455s.364.23.702.299l1.482.312c.624.121 1.062.33 1.313.624.26.286.39.637.39 1.053 0 .416-.108.784-.325 1.105-.216.312-.528.555-.936.728-.407.173-.892.26-1.456.26zm6.725 0a2.97 2.97 0 01-1.183-.234 1.9 1.9 0 01-.858-.754c-.217-.347-.325-.797-.325-1.352V36.5h1.391v3.939c0 .59.126.997.377 1.222.251.217.602.325 1.053.325.217 0 .425-.035.624-.104a1.65 1.65 0 00.559-.351c.165-.165.29-.373.377-.624.095-.251.143-.546.143-.884V36.5h1.391V43h-1.222l-.065-1.053a2.112 2.112 0 01-.91.897c-.381.19-.832.286-1.352.286zm6.424-7.722c-.303 0-.537-.074-.702-.221-.156-.156-.234-.373-.234-.65s.078-.49.234-.637c.165-.147.399-.221.702-.221.295 0 .52.074.676.221.165.147.247.36.247.637s-.082.494-.247.65c-.156.147-.381.221-.676.221zm.689 1.092V43h-1.391v-6.5h1.391zm4.647 6.63c-.65 0-1.244-.126-1.781-.377a3.076 3.076 0 01-1.274-1.066l.962-.832c.19.355.463.641.819.858.364.208.797.312 1.3.312.398 0 .715-.07.949-.208.234-.139.351-.334.351-.585a.613.613 0 00-.169-.429c-.104-.13-.308-.23-.611-.299l-1.365-.286c-.694-.139-1.188-.36-1.482-.663-.295-.312-.442-.706-.442-1.183 0-.355.104-.685.312-.988.208-.303.511-.546.91-.728.407-.19.892-.286 1.456-.286.65 0 1.204.117 1.664.351.459.225.81.55 1.053.975l-.962.806a1.612 1.612 0 00-.728-.767 2.081 2.081 0 00-1.001-.26 2.18 2.18 0 00-.715.104c-.2.07-.351.165-.455.286a.638.638 0 00-.156.429c0 .173.065.325.195.455s.364.23.702.299l1.482.312c.624.121 1.061.33 1.313.624.26.286.39.637.39 1.053 0 .416-.109.784-.325 1.105-.217.312-.529.555-.936.728-.408.173-.893.26-1.456.26zm8.638 2.6V36.5h1.235l.104 1.82-.182-.221c.104-.338.264-.637.481-.897.217-.26.485-.464.806-.611a2.611 2.611 0 011.079-.221c.529 0 1.01.134 1.443.403a2.79 2.79 0 011.027 1.157c.251.494.377 1.096.377 1.807 0 .71-.13 1.322-.39 1.833a2.758 2.758 0 01-1.04 1.157 2.707 2.707 0 01-1.456.403c-.555 0-1.027-.143-1.417-.429a2.417 2.417 0 01-.832-1.118l.156-.221v4.368h-1.391zm3.185-3.731c.563 0 1.001-.2 1.313-.598.321-.399.481-.949.481-1.651 0-.702-.156-1.252-.468-1.651-.312-.407-.745-.611-1.3-.611-.364 0-.685.095-.962.286a1.848 1.848 0 00-.637.78c-.147.33-.221.728-.221 1.196 0 .46.074.858.221 1.196.147.338.355.598.624.78.269.182.585.273.949.273zm8.71-3.172c0-.433-.122-.767-.364-1.001-.234-.243-.559-.364-.975-.364-.39 0-.724.091-1.001.273-.278.182-.481.477-.611.884l-1.17-.494c.164-.529.485-.953.962-1.274.485-.32 1.109-.481 1.872-.481.52 0 .979.087 1.378.26.398.165.71.416.936.754.234.338.351.771.351 1.3v2.899c0 .32.16.481.481.481.156 0 .307-.022.455-.065l-.078.962c-.2.095-.451.143-.754.143a1.92 1.92 0 01-.754-.143 1.258 1.258 0 01-.52-.455c-.122-.208-.182-.464-.182-.767v-.091l.286-.013c-.078.338-.239.62-.481.845a2.506 2.506 0 01-.845.494 3.146 3.146 0 01-.975.156c-.408 0-.776-.065-1.105-.195a1.73 1.73 0 01-.767-.585c-.182-.269-.273-.598-.273-.988 0-.485.156-.884.468-1.196.32-.312.771-.524 1.352-.637l2.522-.494-.013.975-1.833.377c-.364.07-.637.169-.819.299-.182.13-.273.32-.273.572 0 .243.091.438.273.585.19.139.442.208.754.208.216 0 .424-.026.624-.078a1.72 1.72 0 00.559-.247c.164-.121.29-.273.377-.455a1.5 1.5 0 00.143-.676v-1.768zm6.127 4.303c-.65 0-1.244-.126-1.781-.377a3.076 3.076 0 01-1.274-1.066l.962-.832c.19.355.463.641.819.858.364.208.797.312 1.3.312.398 0 .715-.07.949-.208.234-.139.351-.334.351-.585a.613.613 0 00-.169-.429c-.104-.13-.308-.23-.611-.299l-1.365-.286c-.694-.139-1.188-.36-1.482-.663-.295-.312-.442-.706-.442-1.183 0-.355.104-.685.312-.988.208-.303.511-.546.91-.728.407-.19.892-.286 1.456-.286.65 0 1.204.117 1.664.351.459.225.81.55 1.053.975l-.962.806a1.612 1.612 0 00-.728-.767 2.081 2.081 0 00-1.001-.26 2.18 2.18 0 00-.715.104c-.2.07-.351.165-.455.286a.638.638 0 00-.156.429c0 .173.065.325.195.455s.364.23.702.299l1.482.312c.624.121 1.061.33 1.313.624.26.286.39.637.39 1.053 0 .416-.109.784-.325 1.105-.217.312-.529.555-.936.728-.408.173-.893.26-1.456.26zm10.952 0a2.97 2.97 0 01-1.183-.234 1.9 1.9 0 01-.858-.754c-.217-.347-.325-.797-.325-1.352V36.5h1.391v3.939c0 .59.126.997.377 1.222.251.217.602.325 1.053.325.217 0 .425-.035.624-.104a1.65 1.65 0 00.559-.351c.165-.165.29-.373.377-.624.095-.251.143-.546.143-.884V36.5h1.391V43h-1.222l-.065-1.053a2.112 2.112 0 01-.91.897c-.381.19-.832.286-1.352.286zm5.722-.13v-6.5h1.235l.091 1.69-.182-.182a2.46 2.46 0 01.52-.923c.234-.251.507-.433.819-.546a3.039 3.039 0 011.014-.169c.46 0 .871.091 1.235.273.373.173.668.438.884.793.217.355.325.806.325 1.352V43h-1.391v-3.783c0-.641-.134-1.083-.403-1.326-.26-.251-.589-.377-.988-.377-.286 0-.563.07-.832.208-.268.13-.494.342-.676.637-.173.295-.26.689-.26 1.183V43h-1.391zm12.277 0v-6.5h1.183l.13 1.17c.173-.425.429-.745.767-.962.346-.225.771-.338 1.274-.338.13 0 .26.013.39.039.13.017.238.048.325.091l-.195 1.222a1.637 1.637 0 00-.325-.078 2.191 2.191 0 00-.468-.039c-.269 0-.533.074-.793.221-.26.139-.477.351-.65.637-.165.286-.247.65-.247 1.092V43h-1.391zm8.038-6.63c.633 0 1.192.134 1.677.403.486.269.863.659 1.131 1.17.278.503.416 1.105.416 1.807s-.138 1.309-.416 1.82a2.791 2.791 0 01-1.131 1.157c-.485.269-1.044.403-1.677.403-.632 0-1.191-.134-1.677-.403a2.89 2.89 0 01-1.144-1.157c-.277-.511-.416-1.118-.416-1.82s.139-1.304.416-1.807a2.87 2.87 0 011.144-1.17c.486-.269 1.045-.403 1.677-.403zm0 1.092c-.39 0-.723.091-1.001.273a1.689 1.689 0 00-.624.767c-.147.338-.221.754-.221 1.248 0 .485.074.901.221 1.248.148.338.356.598.624.78.278.173.611.26 1.001.26.39 0 .72-.087.988-.26a1.76 1.76 0 00.624-.78c.148-.347.221-.763.221-1.248 0-.494-.073-.91-.221-1.248a1.676 1.676 0 00-.624-.767c-.268-.182-.598-.273-.988-.273zm8.458 5.668c-.381 0-.732-.074-1.053-.221a2.296 2.296 0 01-.793-.611 2.736 2.736 0 01-.481-.897l.169-.221-.104 1.82h-1.222v-9.425h1.391v4.563l-.156-.221c.165-.45.447-.819.845-1.105.399-.295.88-.442 1.443-.442.52 0 .997.134 1.43.403.442.269.789.654 1.04 1.157.252.503.377 1.114.377 1.833 0 .702-.13 1.304-.39 1.807a2.758 2.758 0 01-1.04 1.157 2.704 2.704 0 01-1.456.403zm-.299-1.118c.564 0 1.001-.2 1.313-.598.321-.407.481-.962.481-1.664s-.156-1.252-.468-1.651c-.312-.399-.749-.598-1.313-.598-.364 0-.68.095-.949.286a1.855 1.855 0 00-.637.78c-.147.338-.221.741-.221 1.209 0 .46.074.858.221 1.196.148.33.356.585.624.767.278.182.594.273.949.273zm7.787-5.642c.632 0 1.191.134 1.677.403.485.269.862.659 1.131 1.17.277.503.416 1.105.416 1.807s-.139 1.309-.416 1.82a2.803 2.803 0 01-1.131 1.157c-.486.269-1.045.403-1.677.403-.633 0-1.192-.134-1.677-.403a2.877 2.877 0 01-1.144-1.157c-.278-.511-.416-1.118-.416-1.82s.138-1.304.416-1.807a2.857 2.857 0 011.144-1.17c.485-.269 1.044-.403 1.677-.403zm0 1.092c-.39 0-.724.091-1.001.273a1.676 1.676 0 00-.624.767c-.148.338-.221.754-.221 1.248 0 .485.073.901.221 1.248.147.338.355.598.624.78.277.173.611.26 1.001.26.39 0 .719-.087.988-.26.268-.182.476-.442.624-.78.147-.347.221-.763.221-1.248 0-.494-.074-.91-.221-1.248a1.689 1.689 0 00-.624-.767c-.269-.182-.598-.273-.988-.273zm6.783-2.873v6.461c0 .32.082.555.247.702.173.147.403.221.689.221.234 0 .437-.035.611-.104.173-.078.333-.182.481-.312l.312 1.014c-.2.173-.447.312-.741.416a3.034 3.034 0 01-.962.143 2.81 2.81 0 01-1.027-.182 1.477 1.477 0 01-.728-.585c-.174-.277-.265-.637-.273-1.079v-6.305l1.391-.39zm2.236 1.911v1.092h-4.875V36.5h4.875z" fill="#000"/><path d="M241.753 64.887V67h-.988v-5.688h2.176c.635 0 1.139.166 1.511.497.375.33.563.768.563 1.312 0 .557-.184.991-.551 1.3-.364.31-.876.466-1.535.466h-1.176zm0-.793h1.188c.351 0 .619-.082.804-.246.185-.167.278-.407.278-.72 0-.306-.094-.551-.282-.733-.187-.185-.445-.28-.773-.286h-1.215v1.985zm6.25-.453a2.354 2.354 0 00-.387-.032c-.434 0-.727.167-.878.5V67h-.95v-4.227h.907l.023.473c.229-.367.547-.55.953-.55.136 0 .248.018.336.054l-.004.89zm1.61 3.359h-.95v-4.227h.95V67zm-1.008-5.324a.51.51 0 01.136-.364c.094-.096.227-.144.399-.144.172 0 .305.048.398.145a.5.5 0 01.141.363.494.494 0 01-.141.36c-.093.093-.226.14-.398.14-.172 0-.305-.047-.399-.14a.503.503 0 01-.136-.36zm3.535 4.12l.894-3.023h.981L252.55 67h-.824l-1.477-4.227h.985l.906 3.024zM257.074 67a1.439 1.439 0 01-.11-.394 1.477 1.477 0 01-1.109.472c-.425 0-.771-.121-1.039-.363a1.16 1.16 0 01-.403-.899c0-.45.167-.795.5-1.035.336-.242.815-.363 1.438-.363h.582v-.277c0-.22-.061-.394-.184-.524-.122-.133-.308-.199-.558-.199a.832.832 0 00-.532.164.497.497 0 00-.207.41h-.949c0-.232.077-.448.231-.648.153-.203.362-.362.625-.477.265-.114.561-.172.886-.172.495 0 .89.125 1.184.375.294.248.445.597.453 1.047v1.906c0 .38.053.684.16.91V67h-.968zm-1.043-.684c.187 0 .363-.045.527-.136a.907.907 0 00.375-.368v-.796h-.512c-.351 0-.616.06-.793.183a.594.594 0 00-.265.52c0 .182.059.328.179.437.123.107.285.16.489.16zm4.582.004a.856.856 0 00.589-.207.703.703 0 00.25-.511h.895c-.01.263-.092.509-.246.738a1.623 1.623 0 01-.625.539c-.263.133-.547.2-.852.2-.591 0-1.06-.192-1.406-.575-.346-.383-.519-.912-.519-1.586v-.098c0-.643.171-1.157.515-1.543.344-.388.813-.582 1.406-.582.503 0 .912.147 1.227.442.318.291.484.675.5 1.152h-.895a.86.86 0 00-.25-.598.79.79 0 00-.589-.234c-.308 0-.545.112-.711.336-.167.221-.252.559-.254 1.012v.152c0 .458.082.8.246 1.027.166.224.406.336.719.336zm3.929-.68l.86-2.867h1.011l-1.679 4.868c-.258.71-.696 1.066-1.313 1.066-.138 0-.29-.023-.457-.07v-.735l.18.012c.239 0 .419-.044.539-.133.122-.086.219-.232.289-.437l.137-.363-1.485-4.208h1.024l.894 2.868zm6.254-.675h-2.051v-.766h2.051v.766zm6.742-2.856h-1.773V67h-.981v-4.89h-1.757v-.797h4.511v.796zm2.168 4.97c-.601 0-1.09-.19-1.465-.567-.372-.38-.558-.886-.558-1.516v-.117c0-.422.081-.798.242-1.129.164-.333.393-.592.688-.777a1.81 1.81 0 01.984-.278c.575 0 1.019.184 1.332.551.315.367.473.887.473 1.559v.382h-2.762c.029.35.144.626.348.829.205.203.463.304.773.304.435 0 .789-.175 1.063-.527l.511.488c-.169.253-.396.45-.679.59a2.13 2.13 0 01-.95.207zm-.113-3.622a.807.807 0 00-.633.273c-.159.183-.26.437-.304.762h1.808v-.07c-.021-.318-.105-.557-.254-.719-.148-.164-.354-.246-.617-.246zm4.762.184a2.354 2.354 0 00-.387-.032c-.435 0-.728.167-.879.5V67h-.949v-4.227h.906l.024.473c.229-.367.546-.55.953-.55.135 0 .247.018.336.054l-.004.89zm1.492-.868l.027.442c.297-.347.703-.52 1.219-.52.565 0 .952.216 1.16.649.307-.433.74-.649 1.297-.649.466 0 .813.13 1.039.387.229.258.346.638.352 1.14V67h-.95v-2.75c0-.268-.058-.465-.175-.59-.117-.125-.311-.187-.582-.187a.794.794 0 00-.532.175.916.916 0 00-.285.454l.004 2.898h-.949v-2.781c-.013-.498-.267-.746-.762-.746-.38 0-.65.155-.808.465V67h-.95v-4.227h.895zm8.437 3.079a.43.43 0 00-.21-.387c-.139-.089-.369-.167-.692-.234a3.558 3.558 0 01-.808-.258c-.474-.23-.711-.561-.711-.996 0-.365.153-.67.461-.914.307-.245.697-.368 1.171-.368.506 0 .913.125 1.223.375.313.25.469.575.469.973h-.949a.578.578 0 00-.204-.453c-.135-.123-.315-.184-.539-.184a.846.846 0 00-.511.145.456.456 0 00-.196.386c0 .146.062.26.184.34.122.081.37.163.742.246.373.081.664.179.875.293.214.112.371.248.473.407.104.159.156.351.156.578 0 .38-.158.689-.473.926-.315.234-.727.351-1.238.351-.346 0-.655-.062-.926-.187a1.52 1.52 0 01-.632-.516 1.214 1.214 0 01-.227-.707h.922a.673.673 0 00.254.52c.156.12.363.18.621.18.25 0 .44-.048.57-.141a.447.447 0 00.195-.375z" fill="#A6A6A6"/><defs><filter id="filter0_d_249_566" x="0" y="0" width="309" height="80" filterUnits="userSpaceOnUse" color-interpolation-filters="sRGB"><feFlood flood-opacity="0" result="BackgroundImageFix"/><feColorMatrix in="SourceAlpha" values="0 0 0 0 0 0 0 0 0 0 0 0 0 0 0 0 0 0 127 0" result="hardAlpha"/><feOffset dy="1"/><feGaussianBlur stdDeviation="1"/><feColorMatrix values="0 0 0 0 0 0 0 0 0 0 0 0 0 0 0 0 0 0 0.1 0"/><feBlend in2="BackgroundImageFix" result="effect1_dropShadow_249_566"/><feBlend in="SourceGraphic" in2="effect1_dropShadow_249_566" result="shape"/></filter></defs></svg>