<svg width="40" height="40" viewBox="0 0 40 40" fill="none" xmlns="http://www.w3.org/2000/svg">
<path d="M0 20C0 8.95431 8.95431 0 20 0C31.0457 0 40 8.95431 40 20C40 31.0457 31.0457 40 20 40C8.95431 40 0 31.0457 0 20Z" fill="white"/>
<path fill-rule="evenodd" clip-rule="evenodd" d="M20 3.33325C10.8 3.33325 3.33331 10.7999 3.33331 19.9999C3.33331 29.1999 10.8 36.6666 20 36.6666C29.2 36.6666 36.6666 29.1999 36.6666 19.9999C36.6666 10.7999 29.2 3.33325 20 3.33325ZM11.7833 30.4666C12.5 28.9666 16.8666 27.4999 20 27.4999C23.1333 27.4999 27.5166 28.9666 28.2166 30.4666C25.95 32.2666 23.1 33.3333 20 33.3333C16.9 33.3333 14.05 32.2666 11.7833 30.4666ZM20 24.1666C22.4333 24.1666 28.2166 25.1499 30.6 28.0499C32.3 25.8166 33.3333 23.0333 33.3333 19.9999C33.3333 12.6499 27.35 6.66659 20 6.66659C12.65 6.66659 6.66665 12.6499 6.66665 19.9999C6.66665 23.0333 7.69998 25.8166 9.39998 28.0499C11.7833 25.1499 17.5666 24.1666 20 24.1666ZM20 9.99992C16.7666 9.99992 14.1666 12.5999 14.1666 15.8333C14.1666 19.0666 16.7666 21.6666 20 21.6666C23.2333 21.6666 25.8333 19.0666 25.8333 15.8333C25.8333 12.5999 23.2333 9.99992 20 9.99992ZM17.5 15.8333C17.5 17.2166 18.6166 18.3333 20 18.3333C21.3833 18.3333 22.5 17.2166 22.5 15.8333C22.5 14.4499 21.3833 13.3333 20 13.3333C18.6166 13.3333 17.5 14.4499 17.5 15.8333Z" fill="url(#paint0_linear_100_2350)"/>
<defs>
<linearGradient id="paint0_linear_100_2350" x1="3.33331" y1="19.943" x2="36.6666" y2="19.943" gradientUnits="userSpaceOnUse">
<stop stop-color="#2835DB"/>
<stop offset="0.505208" stop-color="#6D46BB"/>
<stop offset="1" stop-color="#F995ED"/>
</linearGradient>
</defs>
</svg>
